<svg width="20" height="20" viewBox="0 0 20 20" fill="none" xmlns="http://www.w3.org/2000/svg">
<path fill-rule="evenodd" clip-rule="evenodd" d="M9.16667 1.66666C7.96865 1.66679 6.78809 1.95391 5.72382 2.50399C4.65955 3.05407 3.74254 3.85109 3.04956 4.82835C2.35657 5.8056 1.90778 6.93464 1.74074 8.12096C1.5737 9.30728 1.69329 10.5164 2.08948 11.647C2.48567 12.7776 3.14695 13.7968 4.01795 14.6194C4.88894 15.442 5.94432 16.0439 7.09573 16.3748C8.24713 16.7058 9.46106 16.7561 10.6359 16.5215C11.8107 16.287 12.9123 15.7744 13.8483 15.0267L16.9108 18.0892C17.068 18.241 17.2785 18.325 17.497 18.3231C17.7155 18.3212 17.9245 18.2335 18.079 18.079C18.2335 17.9245 18.3212 17.7155 18.3231 17.497C18.325 17.2785 18.241 17.068 18.0892 16.9108L15.0267 13.8483C15.9083 12.7449 16.4605 11.4149 16.6196 10.0115C16.7787 8.60805 16.5383 7.18822 15.926 5.91541C15.3137 4.64261 14.3544 3.56856 13.1586 2.81691C11.9628 2.06525 10.5791 1.66654 9.16667 1.66666ZM4.16667 9.16666C4.16667 8.51005 4.296 7.85987 4.54727 7.25325C4.79855 6.64662 5.16684 6.09542 5.63114 5.63113C6.09543 5.16684 6.64662 4.79854 7.25325 4.54727C7.85988 4.29599 8.51006 4.16666 9.16667 4.16666C9.82328 4.16666 10.4735 4.29599 11.0801 4.54727C11.6867 4.79854 12.2379 5.16684 12.7022 5.63113C13.1665 6.09542 13.5348 6.64662 13.7861 7.25325C14.0373 7.85987 14.1667 8.51005 14.1667 9.16666C14.1667 10.4927 13.6399 11.7645 12.7022 12.7022C11.7645 13.6399 10.4928 14.1667 9.16667 14.1667C7.84059 14.1667 6.56882 13.6399 5.63114 12.7022C4.69345 11.7645 4.16667 10.4927 4.16667 9.16666Z" fill="#212121"/>
</svg>
