<?xml version="1.0" encoding="utf-8"?>
<svg fill="#000000" width="800px" height="800px" viewBox="0 0 24 24" xmlns="http://www.w3.org/2000/svg">
  <path d="M12,2 C12,2 8,6 8,10 C8,13 9.79,15 12,15 C14.21,15 16,13 16,10 C16,6 12,2 12,2 Z M12,13.5 C10.62,13.5 9.5,12.38 9.5,11 C9.5,9.62 10.62,8.5 12,8.5 C13.38,8.5 14.5,9.62 14.5,11 C14.5,12.38 13.38,13.5 12,13.5 Z M7,14 C7,14 5,16 5,18 C5,20 6.34,21 7.5,21 C8.66,21 10,20 10,18 C10,16 7,14 7,14 Z M16.5,14 C16.5,14 14.5,16 14.5,18 C14.5,20 15.84,21 17,21 C18.16,21 19.5,20 19.5,18 C19.5,16 16.5,14 16.5,14 Z"/>
</svg>
