<?xml version="1.0" encoding="UTF-8"?>
<svg id="Character" xmlns="http://www.w3.org/2000/svg" viewBox="0 0 720 720">
  <defs>
    <style>
      .cls-1 {
        fill: none;
        stroke: #000;
        stroke-linecap: round;
        stroke-linejoin: round;
        stroke-width: 13.32px;
      }

      .cls-2, .cls-3, .cls-4, .cls-5, .cls-6 {
        stroke-width: 0px;
      }

      .cls-3 {
        fill: #1c75bc;
      }

      .cls-4 {
        fill: #fff;
      }

      .cls-5 {
        fill: #ffd9e1;
      }

      .cls-6 {
        fill: #f84b5f;
      }
    </style>
  </defs>
  <g>
    <circle class="cls-6" cx="360" cy="360" r="345.94"/>
    <g>
      <path class="cls-4" d="m359.33,513.36c-.22,0-.54,0-.96,0,.29,0,.61,0,.96,0Z"/>
      <path class="cls-4" d="m625.45,576.72s-57.17,84.55-178.32,114.48c-26.06,6.45-55.08,10.36-87.13,10.36-181.04,0-265.45-127.34-265.45-127.34l16.5-71.02,12.94-55.73,49.73-214.07c6.61-28.45,31.97-48.6,61.18-48.6h249.6c29.22,0,54.58,20.15,61.18,48.6l49.35,212.39,30.42,130.94Z"/>
    </g>
    <path class="cls-5" d="m178.76,658.05h38.08l24.69-83.28c2.52-8.48,10.31-14.3,19.16-14.3h198.04c8.85,0,16.64,5.82,19.16,14.3l24.69,83.28h25.84H178.76Z"/>
    <path class="cls-5" d="m158.26,656.72h402.9c-31.37,21.24-66.27,37.66-103.64,40.87l-97.52,15.13-98.1-15.13"/>
    <path class="cls-6" d="m360,50.25c41.84,0,82.4,8.18,120.55,24.32,36.88,15.6,70.01,37.94,98.47,66.4,28.46,28.46,50.8,61.59,66.4,98.47,16.14,38.16,24.32,78.72,24.32,120.55,0,38.28-6.88,75.61-20.46,110.98-13.12,34.18-32.08,65.53-56.36,93.21-17.49,19.95-37.51,37.61-59.49,52.5l-.83.56c-27.2,18.29-56.92,32.06-88.36,40.92-27.25,7.69-55.59,11.59-84.24,11.59s-56.99-3.9-84.26-11.59c-31.43-8.86-61.15-22.62-88.35-40.91l-.83-.56c-21.98-14.89-42-32.56-59.5-52.51-24.27-27.66-43.23-59.02-56.35-93.2-13.58-35.36-20.46-72.7-20.46-110.98,0-41.84,8.18-82.4,24.32-120.55,15.6-36.88,37.94-70.01,66.4-98.47,28.46-28.46,61.59-50.8,98.47-66.4,38.16-16.14,78.72-24.32,120.55-24.32m0-49.96C161.34.29.29,161.34.29,360c0,90.83,33.67,173.81,89.22,237.12,20.28,23.12,43.49,43.62,69.03,60.92,0,0,0,0,0,0,31.37,21.24,66.27,37.66,103.64,48.19,31.1,8.77,63.9,13.46,97.81,13.46s66.71-4.69,97.81-13.46c37.37-10.53,72.28-26.95,103.64-48.19,0,0,0,0,0,0,25.55-17.31,48.75-37.8,69.03-60.92,55.55-63.31,89.22-146.29,89.22-237.12C719.71,161.34,558.66.29,360,.29h0Z"/>
    <ellipse class="cls-2" cx="305.59" cy="352.52" rx="25.69" ry="43.17"/>
    <path class="cls-2" d="m231.03,252.1l6.83,22.37s45.74-22.99,90.9-24.85l-7.03-31.07s-44.73,1.24-90.71,33.55Z"/>
    <path class="cls-2" d="m483.62,252.1l-6.83,22.37s-45.74-22.99-90.9-24.85l7.03-31.07s44.73,1.24,90.71,33.55Z"/>
    <rect class="cls-4" x="378.27" y="274.17" width="67.21" height="45.67"/>
    <ellipse class="cls-2" cx="412.18" cy="352.52" rx="25.69" ry="43.17"/>
    <path class="cls-1" d="m305.59,468.26s20.68-9.51,54.41-9.51,52.18,9.51,52.18,9.51"/>
    <ellipse class="cls-4" cx="429.75" cy="298.64" rx="37.93" ry="32.59"/>
    <ellipse class="cls-4" cx="287.42" cy="298.64" rx="37.93" ry="32.59"/>
  </g>
  <path class="cls-3" d="m521.72,340.85c5.08,12.5-3.69,26.5-17.17,26.96-.23,0-.47.01-.71.01s-.47,0-.7-.01c-13.48-.46-22.25-14.45-17.17-26.96l3.17-7.82,10.53-25.94c1.52-3.74,6.82-3.74,8.34,0l10.53,25.94,3.18,7.82Z"/>
  <path class="cls-3" d="m548.1,381.56c3.32,8.18-2.2,17.46-11.02,18.01-.28.02-.57.03-.85.03s-.57,0-.85-.03c-8.81-.54-14.34-9.82-11.02-18l2.08-5.13,6.7-16.51c1.12-2.77,5.05-2.77,6.17,0l6.7,16.51,2.08,5.13Z"/>
  <path class="cls-3" d="m213.75,411.12c3.32,8.18-2.2,17.46-11.02,18.01-.28.02-.57.03-.85.03s-.57,0-.85-.03c-8.81-.54-14.34-9.82-11.02-18l2.08-5.13,6.7-16.51c1.12-2.77,5.05-2.77,6.17,0l6.7,16.51,2.08,5.13Z"/>
</svg>