<?xml version="1.0" encoding="UTF-8"?>
<svg id="Character" xmlns="http://www.w3.org/2000/svg" viewBox="0 0 720 720">
  <defs>
    <style>
      .cls-1 {
        fill: none;
        stroke: #000;
        stroke-linecap: round;
        stroke-linejoin: round;
        stroke-width: 13.32px;
      }

      .cls-2, .cls-3, .cls-4, .cls-5 {
        stroke-width: 0px;
      }

      .cls-3 {
        fill: #fff;
      }

      .cls-4 {
        fill: #fff7d4;
      }

      .cls-5 {
        fill: #ffd731;
      }
    </style>
  </defs>
  <circle class="cls-5" cx="360" cy="359.71" r="345.94"/>
  <g>
    <path class="cls-3" d="m359.33,513.07c-.22,0-.54,0-.96,0,.29,0,.61,0,.96,0Z"/>
    <path class="cls-3" d="m625.45,576.43s-57.17,84.55-178.32,114.48c-26.06,6.45-55.08,10.36-87.13,10.36-181.04,0-265.45-127.34-265.45-127.34l16.5-71.02,12.94-55.73,49.73-214.07c6.61-28.45,31.97-48.6,61.18-48.6h249.6c29.22,0,54.58,20.15,61.18,48.6l49.35,212.39,30.42,130.94Z"/>
  </g>
  <path class="cls-4" d="m178.76,657.76h38.08l24.69-83.28c2.52-8.48,10.31-14.3,19.16-14.3h198.04c8.85,0,16.64,5.82,19.16,14.3l24.69,83.28h25.84H178.76Z"/>
  <path class="cls-4" d="m158.26,656.43h402.9c-31.37,21.24-66.27,37.66-103.64,40.87l-97.52,15.13-98.1-15.13"/>
  <path class="cls-5" d="m360,49.96c41.84,0,82.4,8.18,120.55,24.32,36.88,15.6,70.01,37.94,98.47,66.4,28.46,28.46,50.8,61.59,66.4,98.47,16.14,38.16,24.32,78.72,24.32,120.55,0,38.28-6.88,75.61-20.46,110.98-13.12,34.18-32.08,65.53-56.36,93.21-17.49,19.95-37.51,37.61-59.49,52.5l-.83.56c-27.2,18.29-56.92,32.06-88.36,40.92-27.25,7.69-55.59,11.59-84.24,11.59s-56.99-3.9-84.26-11.59c-31.43-8.86-61.15-22.62-88.35-40.91l-.83-.56c-21.98-14.89-42-32.56-59.5-52.51-24.27-27.66-43.23-59.02-56.35-93.2-13.58-35.36-20.46-72.7-20.46-110.98,0-41.84,8.18-82.4,24.32-120.55,15.6-36.88,37.94-70.01,66.4-98.47,28.46-28.46,61.59-50.8,98.47-66.4,38.16-16.14,78.72-24.32,120.55-24.32m0-49.96C161.34,0,.29,161.05.29,359.71c0,90.83,33.67,173.81,89.22,237.12,20.28,23.12,43.49,43.62,69.03,60.92,0,0,0,0,0,0,31.37,21.24,66.27,37.66,103.64,48.19,31.1,8.77,63.9,13.46,97.81,13.46s66.71-4.69,97.81-13.46c37.37-10.53,72.28-26.95,103.64-48.19,0,0,0,0,0,0,25.55-17.31,48.75-37.8,69.03-60.92,55.55-63.31,89.22-146.29,89.22-237.12C719.71,161.05,558.66,0,360,0h0Z"/>
  <ellipse class="cls-2" cx="305.59" cy="352.23" rx="25.69" ry="43.17"/>
  <ellipse class="cls-2" cx="411.57" cy="352.23" rx="25.69" ry="43.17"/>
  <polygon class="cls-2" points="336.8 257.4 336.8 286.69 246.49 286.69 246.49 266.55 336.8 257.4"/>
  <polygon class="cls-2" points="381.67 257.4 381.67 286.69 471.98 286.69 471.98 266.55 381.67 257.4"/>
  <path class="cls-1" d="m437.07,457.21s-37.18,0-74.45,0h-2.62c-37.26,0-77.07,0-77.07,0"/>
</svg>