<?xml version="1.0" encoding="UTF-8"?>
<svg id="Character" xmlns="http://www.w3.org/2000/svg" viewBox="0 0 720 720">
  <defs>
    <style>
      .cls-1 {
        stroke: #000;
      }

      .cls-1, .cls-2, .cls-3 {
        fill: none;
        stroke-linecap: round;
        stroke-linejoin: round;
        stroke-width: 13.32px;
      }

      .cls-2 {
        stroke: #58006d;
      }

      .cls-3 {
        stroke: #ae2ece;
      }

      .cls-4, .cls-5, .cls-6, .cls-7, .cls-8, .cls-9 {
        stroke-width: 0px;
      }

      .cls-5 {
        fill: #58006d;
      }

      .cls-6 {
        fill: #1c75bc;
      }

      .cls-7 {
        fill: #ae2ece;
      }

      .cls-8 {
        fill: #fff;
      }

      .cls-9 {
        fill: #f6d2ff;
      }
    </style>
  </defs>
  <circle class="cls-7" cx="363.01" cy="360" r="345.94"/>
  <g>
    <path class="cls-8" d="m362.35,513.36c-.22,0-.54,0-.96,0,.29,0,.61,0,.96,0Z"/>
    <path class="cls-8" d="m628.47,576.72s-57.17,84.55-178.32,114.48c-26.06,6.45-55.08,10.36-87.13,10.36-181.04,0-265.45-127.34-265.45-127.34l16.5-71.02,12.94-55.73,49.73-214.07c6.61-28.45,31.97-48.6,61.18-48.6h249.6c29.22,0,54.58,20.15,61.18,48.6l49.35,212.39,30.42,130.94Z"/>
  </g>
  <path class="cls-9" d="m181.77,658.05h38.08l24.69-83.28c2.52-8.48,10.31-14.3,19.16-14.3h198.04c8.85,0,16.64,5.82,19.16,14.3l24.69,83.28h25.84H181.77Z"/>
  <path class="cls-9" d="m161.27,656.72h402.9c-31.37,21.24-66.27,37.66-103.64,40.87l-97.52,15.13-98.1-15.13"/>
  <path class="cls-7" d="m363.01,50.25c41.84,0,82.4,8.18,120.55,24.32,36.88,15.6,70.01,37.94,98.47,66.4,28.46,28.46,50.8,61.59,66.4,98.47,16.14,38.16,24.32,78.72,24.32,120.55,0,38.28-6.88,75.61-20.46,110.98-13.12,34.18-32.08,65.53-56.36,93.21-17.49,19.95-37.51,37.61-59.49,52.5l-.83.56c-27.2,18.29-56.92,32.06-88.36,40.92-27.25,7.69-55.59,11.59-84.24,11.59s-56.99-3.9-84.26-11.59c-31.43-8.86-61.15-22.62-88.35-40.91l-.83-.56c-21.98-14.89-42-32.56-59.5-52.51-24.27-27.66-43.23-59.02-56.35-93.2-13.58-35.36-20.46-72.7-20.46-110.98,0-41.84,8.18-82.4,24.32-120.55,15.6-36.88,37.94-70.01,66.4-98.47,28.46-28.46,61.59-50.8,98.47-66.4,38.16-16.14,78.72-24.32,120.55-24.32m0-49.96C164.35.29,3.3,161.34,3.3,360c0,90.83,33.67,173.81,89.22,237.12,20.28,23.12,43.49,43.62,69.03,60.92,0,0,0,0,0,0,31.37,21.24,66.27,37.66,103.64,48.19,31.1,8.77,63.9,13.46,97.81,13.46s66.71-4.69,97.81-13.46c37.37-10.53,72.28-26.95,103.64-48.19,0,0,0,0,0,0,25.55-17.31,48.75-37.8,69.03-60.92,55.55-63.31,89.22-146.29,89.22-237.12C722.72,161.34,561.67.29,363.01.29h0Z"/>
  <g>
    <path class="cls-2" d="m561.41,437.33s16.14-16.38,26.55-42.49"/>
    <path class="cls-5" d="m570.3,549.95c-92.67,95.76-206.81,91.75-207.29,91.75s-114.61,4.02-207.29-91.75c-14.74-15.23-20.72-36.93-16.15-57.63l16.81-76.19s26.82,39.12,71.78,27.04c44.95-12.06,52.78-45.34,134.86-47.48,82.08,2.14,89.91,35.42,134.87,47.48,44.96,12.07,71.78-27.04,71.78-27.04l16.81,76.19c4.56,20.7-1.41,42.4-16.15,57.63Z"/>
    <path class="cls-2" d="m164.61,437.33s-16.14-16.38-26.55-42.49"/>
    <path class="cls-3" d="m266.9,499.98s46.93,15.03,96.11,15.03"/>
    <path class="cls-3" d="m459.12,499.98s-46.93,15.03-96.11,15.03"/>
    <path class="cls-3" d="m266.9,533.73s46.93,15.03,96.11,15.03"/>
    <path class="cls-3" d="m459.12,533.73s-46.93,15.03-96.11,15.03"/>
    <path class="cls-3" d="m266.9,567.47s46.93,15.03,96.11,15.03"/>
    <path class="cls-3" d="m459.12,567.47s-46.93,15.03-96.11,15.03"/>
  </g>
  <ellipse class="cls-6" cx="242.46" cy="378.2" rx="20.44" ry="5.42"/>
  <ellipse class="cls-6" cx="479.56" cy="378.2" rx="20.44" ry="5.42"/>
  <path class="cls-1" d="m270.6,335.82s40.46-2.5,53.76,24.18c0,0-28.65-4.32-53.76,9.13"/>
  <path class="cls-1" d="m450.87,335.82s-40.46-2.5-53.76,24.18c0,0,28.65-4.32,53.76,9.13"/>
  <path class="cls-4" d="m336.01,257.69l-7.34,29.29s-33.21-21.69-82.6-15.14l-3.61-18.57s38.05-19.64,93.55,4.43Z"/>
  <path class="cls-4" d="m384.68,257.69l7.34,29.29s33.21-21.69,82.6-15.14l3.61-18.57s-38.05-19.64-93.55,4.43Z"/>
</svg>