<?xml version="1.0" encoding="UTF-8"?>
<svg id="Character" xmlns="http://www.w3.org/2000/svg" viewBox="0 0 720 720">
  <defs>
    <style>
      .cls-1, .cls-2 {
        fill: none;
      }

      .cls-1, .cls-2, .cls-3, .cls-4 {
        stroke-linecap: round;
        stroke-linejoin: round;
      }

      .cls-1, .cls-3 {
        stroke-width: 15.39px;
      }

      .cls-1, .cls-4 {
        stroke: #59122d;
      }

      .cls-2 {
        stroke-width: 13.32px;
      }

      .cls-2, .cls-3 {
        stroke: #7f1f44;
      }

      .cls-3, .cls-5 {
        fill: #59122d;
      }

      .cls-6, .cls-5, .cls-7, .cls-8, .cls-9, .cls-10 {
        stroke-width: 0px;
      }

      .cls-7 {
        fill: #ae2ece;
      }

      .cls-8 {
        fill: #7f1f44;
      }

      .cls-9, .cls-4 {
        fill: #fff;
      }

      .cls-10 {
        fill: #efcedd;
      }

      .cls-4 {
        stroke-width: 15.32px;
      }
    </style>
  </defs>
  <circle class="cls-8" cx="360" cy="360" r="345.94"/>
  <g>
    <path class="cls-9" d="m359.33,513.36c-.22,0-.54,0-.96,0,.29,0,.61,0,.96,0Z"/>
    <path class="cls-9" d="m625.45,576.72s-57.17,84.55-178.32,114.48c-26.06,6.45-55.08,10.36-87.13,10.36-181.04,0-265.45-127.34-265.45-127.34l16.5-71.02,12.94-55.73,49.73-214.07c6.61-28.45,31.97-48.6,61.18-48.6h249.6c29.22,0,54.58,20.15,61.18,48.6l49.35,212.39,30.42,130.94Z"/>
  </g>
  <path class="cls-10" d="m178.76,658.05h38.08l24.69-83.28c2.52-8.48,10.31-14.3,19.16-14.3h198.04c8.85,0,16.64,5.82,19.16,14.3l24.69,83.28h25.84H178.76Z"/>
  <path class="cls-10" d="m158.26,656.72h402.9c-31.37,21.24-66.27,37.66-103.64,40.87l-97.52,15.13-98.1-15.13"/>
  <path class="cls-8" d="m360,50.25c41.84,0,82.4,8.18,120.55,24.32,36.88,15.6,70.01,37.94,98.47,66.4,28.46,28.46,50.8,61.59,66.4,98.47,16.14,38.16,24.32,78.72,24.32,120.55,0,38.28-6.88,75.61-20.46,110.98-13.12,34.18-32.08,65.53-56.36,93.21-17.49,19.95-37.51,37.61-59.49,52.5l-.83.56c-27.2,18.29-56.92,32.06-88.36,40.92-27.25,7.69-55.59,11.59-84.24,11.59s-56.99-3.9-84.26-11.59c-31.43-8.86-61.15-22.62-88.35-40.91l-.83-.56c-21.98-14.89-42-32.56-59.5-52.51-24.27-27.66-43.23-59.02-56.35-93.2-13.58-35.36-20.46-72.7-20.46-110.98,0-41.84,8.18-82.4,24.32-120.55,15.6-36.88,37.94-70.01,66.4-98.47,28.46-28.46,61.59-50.8,98.47-66.4,38.16-16.14,78.72-24.32,120.55-24.32m0-49.96C161.34.29.29,161.34.29,360c0,90.83,33.67,173.81,89.22,237.12,20.28,23.12,43.49,43.62,69.03,60.92,0,0,0,0,0,0,31.37,21.24,66.27,37.66,103.64,48.19,31.1,8.77,63.9,13.46,97.81,13.46s66.71-4.69,97.81-13.46c37.37-10.53,72.28-26.95,103.64-48.19,0,0,0,0,0,0,25.55-17.31,48.75-37.8,69.03-60.92,55.55-63.31,89.22-146.29,89.22-237.12C719.71,161.34,558.66.29,360,.29h0Z"/>
  <rect class="cls-5" x="138.07" y="314.41" width="60.59" height="81.37" rx="15.27" ry="15.27" transform="translate(85.09 -28.97) rotate(13.13)"/>
  <rect class="cls-5" x="522.36" y="314.41" width="60.59" height="81.37" rx="15.27" ry="15.27" transform="translate(1171.55 575.31) rotate(166.87)"/>
  <path class="cls-10" d="m543.14,315.3H176.86l27.6-105.3c7.89-30.11,35.1-51.1,66.23-51.1h178.61c31.13,0,58.34,21,66.23,51.1l27.6,105.3Z"/>
  <path class="cls-10" d="m385.94,605.58c-8.38,1.07-17.03,1.64-25.94,1.64s-17.56-.57-25.94-1.64c-117.15-14.95-195.27-128.66-169.13-243.82l6.69-29.49c11.2-49.35,53.12-85.77,103.56-89.9,47.19-3.86,122.44-3.86,169.62,0,50.44,4.13,92.36,40.55,103.56,89.9l6.69,29.49c26.14,115.16-51.98,228.88-169.13,243.82Z"/>
  <g>
    <ellipse class="cls-4" cx="288.59" cy="355.09" rx="60.66" ry="67.33"/>
    <ellipse class="cls-4" cx="431.41" cy="355.09" rx="60.66" ry="67.33"/>
  </g>
  <path class="cls-7" d="m259.04,572.18l.14,15.87c-.39-2.78-.59-5.62-.59-8.49,0-2.49.15-4.96.45-7.38Z"/>
  <path class="cls-7" d="m461.41,579.56c0,2.86-.19,5.7-.59,8.49l.14-15.9c.3,2.44.45,4.91.45,7.41Z"/>
  <path class="cls-8" d="m461.41,521.68v1.26s-.45,49.21-.45,49.21l-.14,15.9c-.28,2.04-.66,4.08-1.15,6.07-1.01,4.18-2.46,8.25-4.3,12.18-.27.59-.56,1.17-.85,1.75-5.62,11.19-14.47,21.13-25.66,29.14-3.15,2.26-6.51,4.37-10.01,6.31-16.6,9.16-36.92,14.56-58.85,14.56s-42.25-5.4-58.85-14.56c-3.5-1.95-6.85-4.05-10.01-6.31-11.19-8.01-20.04-17.95-25.67-29.14-.29-.58-.58-1.17-.85-1.75-1.84-3.92-3.28-7.99-4.3-12.18-.48-1.99-.87-4.03-1.15-6.07l-.14-15.87-.43-49.26v-1.25c-.01-4.98.59-9.86,1.74-14.57.63-2.62,1.43-5.2,2.39-7.71.81-2.12,1.72-4.18,2.75-6.22,2.11-4.2,4.68-8.21,7.65-12.03,4.94-6.34,11.02-12.1,18.01-17.11,1.49-1.06,3.01-2.09,4.58-3.08,17.49-11.12,39.88-17.79,64.27-17.79s46.78,6.67,64.28,17.79c1.57.99,3.09,2.03,4.58,3.08,6.99,5,13.07,10.75,18.01,17.11,2.98,3.82,5.56,7.83,7.65,12.03,1.03,2.03,1.95,4.1,2.75,6.22.96,2.51,1.76,5.09,2.39,7.71,1.15,4.71,1.75,9.59,1.75,14.57Z"/>
  <ellipse class="cls-6" cx="411.57" cy="352.52" rx="25.69" ry="43.17"/>
  <ellipse class="cls-6" cx="305.59" cy="352.52" rx="25.69" ry="43.17"/>
  <path class="cls-1" d="m461.41,568.83c0,2.86-.2,5.7-.59,8.49-.28,2.04-.66,4.07-1.15,6.07-1.02,4.18-2.45,8.25-4.3,12.18-.28.58-.56,1.17-.85,1.75-5.63,11.19-14.47,21.12-25.66,29.13-3.16,2.27-6.51,4.37-10.02,6.31-16.6,9.16-36.91,14.55-58.85,14.55s-42.25-5.39-58.84-14.55c-3.51-1.94-6.85-4.05-10.01-6.31-11.19-8.01-20.04-17.95-25.67-29.13-.29-.58-.57-1.17-.85-1.75-1.84-3.92-3.28-8-4.3-12.18-.48-2-.87-4.03-1.15-6.07-.39-2.78-.59-5.62-.59-8.49,0-4.98.6-9.86,1.76-14.57.63-2.62,1.42-5.2,2.39-7.71.8-2.12,1.72-4.18,2.75-6.22,2.11-4.2,4.68-8.21,7.66-12.03,4.94-6.34,11.02-12.1,18.01-17.11,1.49-1.06,3.01-2.09,4.58-3.08,17.49-11.12,39.88-17.78,64.26-17.78s46.78,6.67,64.27,17.78c1.57.99,3.09,2.02,4.58,3.08,6.99,5,13.07,10.75,18.01,17.11,2.98,3.81,5.56,7.83,7.66,12.03,1.03,2.04,1.94,4.1,2.75,6.22.96,2.51,1.76,5.09,2.39,7.71,1.16,4.71,1.75,9.58,1.75,14.57Z"/>
  <path class="cls-3" d="m461.41,579.57c0,2.86-.2,5.7-.59,8.49-.28,2.04-.66,4.07-1.15,6.07-1.02,4.18-2.45,8.25-4.3,12.18-.28.58-.56,1.17-.85,1.75-5.63,11.19-14.47,21.12-25.66,29.13-3.16,2.27-6.51,4.37-10.02,6.31-16.6,9.16-36.91,14.55-58.85,14.55s-42.25-5.39-58.84-14.55c-3.51-1.94-6.85-4.05-10.01-6.31-11.19-8.01-20.04-17.95-25.67-29.13-.29-.58-.57-1.17-.85-1.75-1.84-3.92-3.28-8-4.3-12.18-.48-2-.87-4.03-1.15-6.07-.39-2.78-.59-5.62-.59-8.49,0-4.98.6-9.86,1.76-14.57.63-2.62,1.42-5.2,2.39-7.71.8-2.12,1.72-4.18,2.75-6.22,2.11-4.2,4.68-8.21,7.66-12.03,4.94-6.34,11.02-12.1,18.01-17.11,1.49-1.06,3.01-2.09,4.58-3.08,17.49-11.12,39.88-17.78,64.26-17.78s46.78,6.67,64.27,17.78c1.57.99,3.09,2.02,4.58,3.08,6.99,5,13.07,10.75,18.01,17.11,2.98,3.81,5.56,7.83,7.66,12.03,1.03,2.04,1.94,4.1,2.75,6.22.96,2.51,1.76,5.09,2.39,7.71,1.16,4.71,1.75,9.58,1.75,14.57Z"/>
  <line class="cls-2" x1="276.36" y1="535.82" x2="424.13" y2="639.34"/>
  <line class="cls-2" x1="443.61" y1="535.79" x2="295.82" y2="639.34"/>
  <ellipse class="cls-8" cx="360" cy="586.12" rx="59.38" ry="42.99"/>
  <g>
    <path class="cls-6" d="m390.63,247.96l3.57-23.11s48.55,16.22,93.52,11.62l-2.52,31.75s-44.45,5.16-94.57-20.26Z"/>
    <path class="cls-6" d="m329.37,247.96l-3.57-23.11s-48.55,16.22-93.52,11.62l2.52,31.75s44.45,5.16,94.57-20.26Z"/>
  </g>
</svg>